<svg xmlns="http://www.w3.org/2000/svg" viewBox="0 0 760 150" width="760" height="150" fill="none" role="img" aria-label="Core stack carousel: Go, TypeScript, Node.js, React">
  <!--
    Self-contained animated carousel. Uses SMIL (animateTransform) and fully
    inlined paths (no CSS, no symbol/use) for maximum GitHub/camo compatibility.
    Two identical tile-sets (760px each) scroll left and loop seamlessly.
  -->
  <g>
    <animateTransform attributeName="transform" type="translate" from="0 0" to="-760 0" dur="14s" repeatCount="indefinite"/>

    <!-- ============ SET 1 ============ -->
    <!-- Go -->
    <rect x="10" y="25" width="170" height="100" rx="16" fill="#161B22" stroke="#00ADD8" stroke-width="1.5"/>
    <g transform="translate(69,40) scale(2.1667)"><path fill="#00ADD8" d="M1.811 10.231c-.047 0-.058-.023-.035-.059l.246-.315c.023-.035.081-.058.128-.058h4.172c.046 0 .058.035.035.07l-.199.303c-.023.036-.082.07-.117.07zM.047 11.306c-.047 0-.059-.024-.035-.059l.246-.315c.023-.035.082-.058.128-.058h5.328c.047 0 .07.035.058.07l-.093.28c-.012.047-.058.07-.105.07zm2.828 1.075c-.047 0-.059-.035-.035-.07l.163-.292c.023-.035.07-.07.117-.07h2.337c.047 0 .07.035.07.082l-.023.28c0 .047-.047.082-.082.082zm12.129-2.36c-.736.187-1.239.327-1.963.514-.176.046-.187.058-.34-.117-.174-.199-.303-.327-.548-.444-.737-.362-1.45-.257-2.115.175-.795.514-1.204 1.274-1.192 2.22.011.935.654 1.706 1.577 1.835.795.105 1.46-.175 1.987-.77.105-.13.198-.27.315-.434H10.47c-.245 0-.304-.152-.222-.35.152-.362.432-.97.596-1.274a.315.315 0 0 1 .292-.187h4.253c-.023.316-.023.631-.07.947a4.983 4.983 0 0 1-.958 2.29c-.83 1.087-1.917 1.764-3.28 1.952-1.122.152-2.162-.058-3.077-.736-.853-.654-1.344-1.554-1.485-2.616-.165-1.262.235-2.408 1.005-3.401.83-1.075 1.917-1.752 3.244-1.998 1.075-.199 2.103-.07 3.03.572.607.4 1.04.947 1.332 1.612.07.105.023.164-.117.199m3.464 6.067c-1.039-.023-1.987-.327-2.787-1.016a3.515 3.515 0 0 1-1.204-2.15c-.21-1.263.128-2.385.888-3.39.819-1.075 1.812-1.636 3.16-1.835 1.122-.187 2.162-.058 3.103.572.853.572 1.391 1.355 1.461 2.408.094 1.484-.337 2.69-1.367 3.728-.736.736-1.636 1.19-2.683 1.367-.187.035-.374.046-.572.046zm2.722-4.602c-.011-.152-.011-.27-.035-.385-.21-1.157-1.273-1.811-2.385-1.519-1.087.28-1.788.97-2.045 2.068-.21.912.234 1.835 1.075 2.209.643.28 1.285.245 1.905-.07.93-.477 1.437-1.226 1.49-2.243z"/></g>
    <text x="95" y="112" text-anchor="middle" fill="#c9d1d9" font-family="Segoe UI, Helvetica, Arial, sans-serif" font-weight="600" font-size="15">Go</text>

    <!-- TypeScript -->
    <rect x="200" y="25" width="170" height="100" rx="16" fill="#161B22" stroke="#3178C6" stroke-width="1.5"/>
    <g transform="translate(259,40) scale(2.1667)"><path fill="#3178C6" d="M1.125 0C.502 0 0 .502 0 1.125v21.75C0 23.498.502 24 1.125 24h21.75c.623 0 1.125-.502 1.125-1.125V1.125C24 .502 23.498 0 22.875 0zm17.363 9.75c.612 0 1.154.037 1.627.111a6.38 6.38 0 0 1 1.306.34v2.458a3.95 3.95 0 0 0-.643-.361 5.093 5.093 0 0 0-.717-.26 5.453 5.453 0 0 0-1.426-.2c-.3 0-.573.028-.819.086a2.1 2.1 0 0 0-.623.242c-.17.104-.3.229-.393.374a.888.888 0 0 0-.14.49c0 .196.053.373.156.529.104.156.252.304.443.444s.423.276.696.41c.273.135.582.274.926.416.47.197.892.407 1.266.628.374.222.695.473.963.753.268.279.472.598.614.957.142.359.214.776.214 1.253 0 .657-.125 1.21-.373 1.656a3.033 3.033 0 0 1-1.012 1.085 4.38 4.38 0 0 1-1.487.596c-.566.12-1.163.18-1.79.18a9.916 9.916 0 0 1-1.84-.164 5.544 5.544 0 0 1-1.512-.493v-2.63a5.033 5.033 0 0 0 3.237 1.2c.333 0 .624-.03.872-.09.249-.06.456-.144.623-.25.166-.108.29-.234.373-.38a1.023 1.023 0 0 0-.074-1.089 2.12 2.12 0 0 0-.537-.5 5.597 5.597 0 0 0-.807-.444 27.72 27.72 0 0 0-1.007-.436c-.918-.383-1.602-.852-2.053-1.405-.45-.553-.676-1.222-.676-2.005 0-.614.123-1.141.369-1.582.246-.441.58-.804 1.004-1.089a4.494 4.494 0 0 1 1.47-.629 7.536 7.536 0 0 1 1.77-.201zm-15.113.188h9.563v2.166H9.506v9.646H6.789v-9.646H3.375z"/></g>
    <text x="285" y="112" text-anchor="middle" fill="#c9d1d9" font-family="Segoe UI, Helvetica, Arial, sans-serif" font-weight="600" font-size="15">TypeScript</text>

    <!-- Node.js -->
    <rect x="390" y="25" width="170" height="100" rx="16" fill="#161B22" stroke="#5FA04E" stroke-width="1.5"/>
    <g transform="translate(449,40) scale(2.1667)"><path fill="#5FA04E" d="M11.998 24c-.321 0-.641-.084-.922-.247l-2.936-1.737c-.438-.245-.224-.332-.08-.383.585-.203.703-.25 1.328-.604.065-.037.151-.023.218.017l2.256 1.339c.082.045.197.045.272 0l8.795-5.076c.082-.047.134-.141.134-.238V6.921c0-.099-.053-.192-.137-.242l-8.791-5.072c-.081-.047-.189-.047-.271 0L3.075 6.68C2.99 6.729 2.936 6.825 2.936 6.921v10.15c0 .097.054.189.139.235l2.409 1.392c1.307.654 2.108-.116 2.108-.89V7.787c0-.142.114-.253.256-.253h1.115c.139 0 .255.112.255.253v10.021c0 1.745-.95 2.745-2.604 2.745-.508 0-.909 0-2.026-.551L2.28 18.675c-.57-.329-.922-.945-.922-1.604V6.921c0-.659.353-1.275.922-1.603l8.795-5.082c.557-.315 1.296-.315 1.848 0l8.794 5.082c.57.329.924.944.924 1.603v10.15c0 .659-.354 1.273-.924 1.604l-8.794 5.078c-.281.163-.6.247-.926.247zM19.099 13.993c0-1.9-1.284-2.406-3.987-2.763-2.731-.361-3.009-.548-3.009-1.187 0-.528.235-1.233 2.258-1.233 1.807 0 2.473.389 2.747 1.607.024.115.129.199.247.199h1.141c.071 0 .138-.031.186-.081.048-.054.074-.123.067-.196-.177-2.098-1.571-3.076-4.388-3.076-2.508 0-4.004 1.058-4.004 2.833 0 1.925 1.488 2.457 3.895 2.695 2.88.282 3.103.703 3.103 1.269 0 .983-.789 1.402-2.642 1.402-2.327 0-2.839-.584-3.011-1.742-.02-.124-.126-.215-.253-.215h-1.137c-.141 0-.254.112-.254.253 0 1.482.806 3.248 4.655 3.248 2.78 0 4.379-1.1 4.379-3.025z"/></g>
    <text x="475" y="112" text-anchor="middle" fill="#c9d1d9" font-family="Segoe UI, Helvetica, Arial, sans-serif" font-weight="600" font-size="15">Node.js</text>

    <!-- React -->
    <rect x="580" y="25" width="170" height="100" rx="16" fill="#161B22" stroke="#61DAFB" stroke-width="1.5"/>
    <g transform="translate(639,40) scale(2.1667)"><path fill="#61DAFB" d="M14.23 12.004a2.236 2.236 0 0 1-2.235 2.236 2.236 2.236 0 0 1-2.236-2.236 2.236 2.236 0 0 1 2.235-2.236 2.236 2.236 0 0 1 2.236 2.236zm2.648-10.69c-1.346 0-3.107.96-4.888 2.622-1.78-1.653-3.542-2.602-4.887-2.602-.41 0-.783.093-1.106.278-1.375.793-1.683 3.264-.973 6.365C1.98 8.917 0 10.42 0 12.004c0 1.59 1.99 3.097 5.043 4.03-.704 3.113-.39 5.588.988 6.38.32.187.69.275 1.102.275 1.345 0 3.107-.96 4.888-2.624 1.78 1.654 3.542 2.603 4.887 2.603.41 0 .783-.09 1.106-.275 1.374-.792 1.683-3.263.973-6.365C22.02 15.096 24 13.59 24 12.004c0-1.59-1.99-3.097-5.043-4.032.704-3.11.39-5.587-.988-6.38a2.167 2.167 0 0 0-1.092-.278zm-.005 1.09v.006c.225 0 .406.044.558.127.666.382.955 1.835.73 3.704-.054.46-.142.945-.25 1.44a23.476 23.476 0 0 0-3.107-.534A23.892 23.892 0 0 0 12.769 4.7c1.592-1.48 3.087-2.292 4.105-2.295zm-9.77.02c1.012 0 2.514.808 4.11 2.28-.686.72-1.37 1.537-2.02 2.442a22.73 22.73 0 0 0-3.113.538 15.02 15.02 0 0 1-.254-1.42c-.23-1.868.054-3.32.714-3.707.19-.09.4-.127.563-.132zm4.882 3.05c.455.468.91.992 1.36 1.564-.44-.02-.89-.034-1.345-.034-.46 0-.915.01-1.36.034.44-.572.895-1.096 1.345-1.565zM12 8.1c.74 0 1.477.034 2.202.093.406.582.802 1.203 1.183 1.86.372.64.71 1.29 1.018 1.946-.308.655-.646 1.31-1.013 1.95-.38.66-.773 1.288-1.18 1.87a25.64 25.64 0 0 1-4.412.005 26.64 26.64 0 0 1-1.183-1.86c-.372-.64-.71-1.29-1.018-1.946a25.17 25.17 0 0 1 1.013-1.954c.38-.66.773-1.286 1.18-1.868A25.245 25.245 0 0 1 12 8.098zm-3.635.254c-.24.377-.48.763-.704 1.16-.225.39-.435.782-.635 1.174-.265-.656-.49-1.31-.676-1.947.64-.15 1.315-.283 2.015-.386zm7.26 0c.695.103 1.365.23 2.006.387-.18.632-.405 1.282-.66 1.933a25.952 25.952 0 0 0-1.345-2.32zm3.063.675c.484.15.944.317 1.375.498 1.732.74 2.852 1.708 2.852 2.476-.005.768-1.125 1.74-2.857 2.475-.42.18-.88.342-1.355.493a23.966 23.966 0 0 0-1.1-2.98c.45-1.017.83-2.01 1.085-2.964zm-13.395.004c.255.957.638 1.96 1.085 2.964a23.142 23.142 0 0 0-1.1 2.98c-.475-.15-.935-.318-1.36-.498-1.728-.742-2.852-1.708-2.852-2.476 0-.768 1.124-1.74 2.852-2.476.42-.18.88-.342 1.355-.494zm11.678 4.28c.265.657.49 1.312.676 1.948-.64.157-1.316.29-2.016.39a25.819 25.819 0 0 0 1.341-2.338zm-9.945.02c.2.392.41.783.64 1.175.23.39.465.772.705 1.143a22.005 22.005 0 0 1-2.006-.386c.18-.63.406-1.282.66-1.933zM17.92 16.32c.112.493.2.968.254 1.423.23 1.868-.054 3.32-.714 3.707-.19.09-.4.127-.563.132-1.012 0-2.514-.807-4.11-2.28.686-.72 1.37-1.536 2.02-2.44 1.107-.118 2.154-.3 3.113-.54zm-11.83.01c.96.234 2.006.415 3.107.532.66.905 1.345 1.727 2.035 2.446-1.595 1.483-3.092 2.295-4.11 2.295a1.185 1.185 0 0 1-.553-.132c-.666-.38-.955-1.834-.73-3.703.054-.46.142-.944.25-1.438zm4.56.64c.44.02.89.034 1.345.034.46 0 .915-.01 1.36-.034-.44.572-.895 1.095-1.345 1.565-.455-.47-.91-.993-1.36-1.565z"/></g>
    <text x="665" y="112" text-anchor="middle" fill="#c9d1d9" font-family="Segoe UI, Helvetica, Arial, sans-serif" font-weight="600" font-size="15">React</text>

    <!-- ============ SET 2 (duplicate, offset +760 for seamless loop) ============ -->
    <!-- Go -->
    <rect x="770" y="25" width="170" height="100" rx="16" fill="#161B22" stroke="#00ADD8" stroke-width="1.5"/>
    <g transform="translate(829,40) scale(2.1667)"><path fill="#00ADD8" d="M1.811 10.231c-.047 0-.058-.023-.035-.059l.246-.315c.023-.035.081-.058.128-.058h4.172c.046 0 .058.035.035.07l-.199.303c-.023.036-.082.07-.117.07zM.047 11.306c-.047 0-.059-.024-.035-.059l.246-.315c.023-.035.082-.058.128-.058h5.328c.047 0 .07.035.058.07l-.093.28c-.012.047-.058.07-.105.07zm2.828 1.075c-.047 0-.059-.035-.035-.07l.163-.292c.023-.035.07-.07.117-.07h2.337c.047 0 .07.035.07.082l-.023.28c0 .047-.047.082-.082.082zm12.129-2.36c-.736.187-1.239.327-1.963.514-.176.046-.187.058-.34-.117-.174-.199-.303-.327-.548-.444-.737-.362-1.45-.257-2.115.175-.795.514-1.204 1.274-1.192 2.22.011.935.654 1.706 1.577 1.835.795.105 1.46-.175 1.987-.77.105-.13.198-.27.315-.434H10.47c-.245 0-.304-.152-.222-.35.152-.362.432-.97.596-1.274a.315.315 0 0 1 .292-.187h4.253c-.023.316-.023.631-.07.947a4.983 4.983 0 0 1-.958 2.29c-.83 1.087-1.917 1.764-3.28 1.952-1.122.152-2.162-.058-3.077-.736-.853-.654-1.344-1.554-1.485-2.616-.165-1.262.235-2.408 1.005-3.401.83-1.075 1.917-1.752 3.244-1.998 1.075-.199 2.103-.07 3.03.572.607.4 1.04.947 1.332 1.612.07.105.023.164-.117.199m3.464 6.067c-1.039-.023-1.987-.327-2.787-1.016a3.515 3.515 0 0 1-1.204-2.15c-.21-1.263.128-2.385.888-3.39.819-1.075 1.812-1.636 3.16-1.835 1.122-.187 2.162-.058 3.103.572.853.572 1.391 1.355 1.461 2.408.094 1.484-.337 2.69-1.367 3.728-.736.736-1.636 1.19-2.683 1.367-.187.035-.374.046-.572.046zm2.722-4.602c-.011-.152-.011-.27-.035-.385-.21-1.157-1.273-1.811-2.385-1.519-1.087.28-1.788.97-2.045 2.068-.21.912.234 1.835 1.075 2.209.643.28 1.285.245 1.905-.07.93-.477 1.437-1.226 1.49-2.243z"/></g>
    <text x="855" y="112" text-anchor="middle" fill="#c9d1d9" font-family="Segoe UI, Helvetica, Arial, sans-serif" font-weight="600" font-size="15">Go</text>

    <!-- TypeScript -->
    <rect x="960" y="25" width="170" height="100" rx="16" fill="#161B22" stroke="#3178C6" stroke-width="1.5"/>
    <g transform="translate(1019,40) scale(2.1667)"><path fill="#3178C6" d="M1.125 0C.502 0 0 .502 0 1.125v21.75C0 23.498.502 24 1.125 24h21.75c.623 0 1.125-.502 1.125-1.125V1.125C24 .502 23.498 0 22.875 0zm17.363 9.75c.612 0 1.154.037 1.627.111a6.38 6.38 0 0 1 1.306.34v2.458a3.95 3.95 0 0 0-.643-.361 5.093 5.093 0 0 0-.717-.26 5.453 5.453 0 0 0-1.426-.2c-.3 0-.573.028-.819.086a2.1 2.1 0 0 0-.623.242c-.17.104-.3.229-.393.374a.888.888 0 0 0-.14.49c0 .196.053.373.156.529.104.156.252.304.443.444s.423.276.696.41c.273.135.582.274.926.416.47.197.892.407 1.266.628.374.222.695.473.963.753.268.279.472.598.614.957.142.359.214.776.214 1.253 0 .657-.125 1.21-.373 1.656a3.033 3.033 0 0 1-1.012 1.085 4.38 4.38 0 0 1-1.487.596c-.566.12-1.163.18-1.79.18a9.916 9.916 0 0 1-1.84-.164 5.544 5.544 0 0 1-1.512-.493v-2.63a5.033 5.033 0 0 0 3.237 1.2c.333 0 .624-.03.872-.09.249-.06.456-.144.623-.25.166-.108.29-.234.373-.38a1.023 1.023 0 0 0-.074-1.089 2.12 2.12 0 0 0-.537-.5 5.597 5.597 0 0 0-.807-.444 27.72 27.72 0 0 0-1.007-.436c-.918-.383-1.602-.852-2.053-1.405-.45-.553-.676-1.222-.676-2.005 0-.614.123-1.141.369-1.582.246-.441.58-.804 1.004-1.089a4.494 4.494 0 0 1 1.47-.629 7.536 7.536 0 0 1 1.77-.201zm-15.113.188h9.563v2.166H9.506v9.646H6.789v-9.646H3.375z"/></g>
    <text x="1045" y="112" text-anchor="middle" fill="#c9d1d9" font-family="Segoe UI, Helvetica, Arial, sans-serif" font-weight="600" font-size="15">TypeScript</text>

    <!-- Node.js -->
    <rect x="1150" y="25" width="170" height="100" rx="16" fill="#161B22" stroke="#5FA04E" stroke-width="1.5"/>
    <g transform="translate(1209,40) scale(2.1667)"><path fill="#5FA04E" d="M11.998 24c-.321 0-.641-.084-.922-.247l-2.936-1.737c-.438-.245-.224-.332-.08-.383.585-.203.703-.25 1.328-.604.065-.037.151-.023.218.017l2.256 1.339c.082.045.197.045.272 0l8.795-5.076c.082-.047.134-.141.134-.238V6.921c0-.099-.053-.192-.137-.242l-8.791-5.072c-.081-.047-.189-.047-.271 0L3.075 6.68C2.99 6.729 2.936 6.825 2.936 6.921v10.15c0 .097.054.189.139.235l2.409 1.392c1.307.654 2.108-.116 2.108-.89V7.787c0-.142.114-.253.256-.253h1.115c.139 0 .255.112.255.253v10.021c0 1.745-.95 2.745-2.604 2.745-.508 0-.909 0-2.026-.551L2.28 18.675c-.57-.329-.922-.945-.922-1.604V6.921c0-.659.353-1.275.922-1.603l8.795-5.082c.557-.315 1.296-.315 1.848 0l8.794 5.082c.57.329.924.944.924 1.603v10.15c0 .659-.354 1.273-.924 1.604l-8.794 5.078c-.281.163-.6.247-.926.247zM19.099 13.993c0-1.9-1.284-2.406-3.987-2.763-2.731-.361-3.009-.548-3.009-1.187 0-.528.235-1.233 2.258-1.233 1.807 0 2.473.389 2.747 1.607.024.115.129.199.247.199h1.141c.071 0 .138-.031.186-.081.048-.054.074-.123.067-.196-.177-2.098-1.571-3.076-4.388-3.076-2.508 0-4.004 1.058-4.004 2.833 0 1.925 1.488 2.457 3.895 2.695 2.88.282 3.103.703 3.103 1.269 0 .983-.789 1.402-2.642 1.402-2.327 0-2.839-.584-3.011-1.742-.02-.124-.126-.215-.253-.215h-1.137c-.141 0-.254.112-.254.253 0 1.482.806 3.248 4.655 3.248 2.78 0 4.379-1.1 4.379-3.025z"/></g>
    <text x="1235" y="112" text-anchor="middle" fill="#c9d1d9" font-family="Segoe UI, Helvetica, Arial, sans-serif" font-weight="600" font-size="15">Node.js</text>

    <!-- React -->
    <rect x="1340" y="25" width="170" height="100" rx="16" fill="#161B22" stroke="#61DAFB" stroke-width="1.5"/>
    <g transform="translate(1399,40) scale(2.1667)"><path fill="#61DAFB" d="M14.23 12.004a2.236 2.236 0 0 1-2.235 2.236 2.236 2.236 0 0 1-2.236-2.236 2.236 2.236 0 0 1 2.235-2.236 2.236 2.236 0 0 1 2.236 2.236zm2.648-10.69c-1.346 0-3.107.96-4.888 2.622-1.78-1.653-3.542-2.602-4.887-2.602-.41 0-.783.093-1.106.278-1.375.793-1.683 3.264-.973 6.365C1.98 8.917 0 10.42 0 12.004c0 1.59 1.99 3.097 5.043 4.03-.704 3.113-.39 5.588.988 6.38.32.187.69.275 1.102.275 1.345 0 3.107-.96 4.888-2.624 1.78 1.654 3.542 2.603 4.887 2.603.41 0 .783-.09 1.106-.275 1.374-.792 1.683-3.263.973-6.365C22.02 15.096 24 13.59 24 12.004c0-1.59-1.99-3.097-5.043-4.032.704-3.11.39-5.587-.988-6.38a2.167 2.167 0 0 0-1.092-.278zm-.005 1.09v.006c.225 0 .406.044.558.127.666.382.955 1.835.73 3.704-.054.46-.142.945-.25 1.44a23.476 23.476 0 0 0-3.107-.534A23.892 23.892 0 0 0 12.769 4.7c1.592-1.48 3.087-2.292 4.105-2.295zm-9.77.02c1.012 0 2.514.808 4.11 2.28-.686.72-1.37 1.537-2.02 2.442a22.73 22.73 0 0 0-3.113.538 15.02 15.02 0 0 1-.254-1.42c-.23-1.868.054-3.32.714-3.707.19-.09.4-.127.563-.132zm4.882 3.05c.455.468.91.992 1.36 1.564-.44-.02-.89-.034-1.345-.034-.46 0-.915.01-1.36.034.44-.572.895-1.096 1.345-1.565zM12 8.1c.74 0 1.477.034 2.202.093.406.582.802 1.203 1.183 1.86.372.64.71 1.29 1.018 1.946-.308.655-.646 1.31-1.013 1.95-.38.66-.773 1.288-1.18 1.87a25.64 25.64 0 0 1-4.412.005 26.64 26.64 0 0 1-1.183-1.86c-.372-.64-.71-1.29-1.018-1.946a25.17 25.17 0 0 1 1.013-1.954c.38-.66.773-1.286 1.18-1.868A25.245 25.245 0 0 1 12 8.098zm-3.635.254c-.24.377-.48.763-.704 1.16-.225.39-.435.782-.635 1.174-.265-.656-.49-1.31-.676-1.947.64-.15 1.315-.283 2.015-.386zm7.26 0c.695.103 1.365.23 2.006.387-.18.632-.405 1.282-.66 1.933a25.952 25.952 0 0 0-1.345-2.32zm3.063.675c.484.15.944.317 1.375.498 1.732.74 2.852 1.708 2.852 2.476-.005.768-1.125 1.74-2.857 2.475-.42.18-.88.342-1.355.493a23.966 23.966 0 0 0-1.1-2.98c.45-1.017.83-2.01 1.085-2.964zm-13.395.004c.255.957.638 1.96 1.085 2.964a23.142 23.142 0 0 0-1.1 2.98c-.475-.15-.935-.318-1.36-.498-1.728-.742-2.852-1.708-2.852-2.476 0-.768 1.124-1.74 2.852-2.476.42-.18.88-.342 1.355-.494zm11.678 4.28c.265.657.49 1.312.676 1.948-.64.157-1.316.29-2.016.39a25.819 25.819 0 0 0 1.341-2.338zm-9.945.02c.2.392.41.783.64 1.175.23.39.465.772.705 1.143a22.005 22.005 0 0 1-2.006-.386c.18-.63.406-1.282.66-1.933zM17.92 16.32c.112.493.2.968.254 1.423.23 1.868-.054 3.32-.714 3.707-.19.09-.4.127-.563.132-1.012 0-2.514-.807-4.11-2.28.686-.72 1.37-1.536 2.02-2.44 1.107-.118 2.154-.3 3.113-.54zm-11.83.01c.96.234 2.006.415 3.107.532.66.905 1.345 1.727 2.035 2.446-1.595 1.483-3.092 2.295-4.11 2.295a1.185 1.185 0 0 1-.553-.132c-.666-.38-.955-1.834-.73-3.703.054-.46.142-.944.25-1.438zm4.56.64c.44.02.89.034 1.345.034.46 0 .915-.01 1.36-.034-.44.572-.895 1.095-1.345 1.565-.455-.47-.91-.993-1.36-1.565z"/></g>
    <text x="1425" y="112" text-anchor="middle" fill="#c9d1d9" font-family="Segoe UI, Helvetica, Arial, sans-serif" font-weight="600" font-size="15">React</text>
  </g>
</svg>
